<svg xmlns="http://www.w3.org/2000/svg" viewBox="0 0 620 180" role="img" aria-labelledby="title desc">
  <title id="title">CineStream logo</title>
  <desc id="desc">A red film reel with a play icon and the CineStream wordmark.</desc>
  <defs>
    <radialGradient id="reelGlow" cx="36%" cy="32%" r="70%">
      <stop offset="0" stop-color="#ff5a5f"/>
      <stop offset="0.42" stop-color="#df151f"/>
      <stop offset="1" stop-color="#76070d"/>
    </radialGradient>
    <linearGradient id="filmStrip" x1="58" x2="152" y1="112" y2="142" gradientUnits="userSpaceOnUse">
      <stop offset="0" stop-color="#f8f8f8"/>
      <stop offset="0.5" stop-color="#777"/>
      <stop offset="1" stop-color="#151515"/>
    </linearGradient>
    <linearGradient id="wordWhite" x1="180" x2="318" y1="54" y2="122" gradientUnits="userSpaceOnUse">
      <stop offset="0" stop-color="#ffffff"/>
      <stop offset="0.52" stop-color="#e9e9e9"/>
      <stop offset="1" stop-color="#8f8f8f"/>
    </linearGradient>
    <linearGradient id="wordRed" x1="340" x2="552" y1="52" y2="126" gradientUnits="userSpaceOnUse">
      <stop offset="0" stop-color="#ff554f"/>
      <stop offset="0.48" stop-color="#f20d18"/>
      <stop offset="1" stop-color="#b90912"/>
    </linearGradient>
    <filter id="softShadow" x="-20%" y="-40%" width="140%" height="180%">
      <feDropShadow dx="0" dy="12" stdDeviation="12" flood-color="#000" flood-opacity="0.72"/>
    </filter>
    <filter id="redDust" x="-40%" y="-40%" width="180%" height="180%">
      <feTurbulence type="fractalNoise" baseFrequency="0.9" numOctaves="2" seed="8" result="noise"/>
      <feColorMatrix in="noise" type="matrix" values="1 0 0 0 0.95 0 0 0 0 0.1 0 0 0 0 0.05 0 0 0 .32 0"/>
      <feGaussianBlur stdDeviation="0.25"/>
    </filter>
  </defs>

  <rect width="620" height="180" fill="transparent"/>
  <ellipse cx="170" cy="132" rx="148" ry="34" fill="#f20d18" opacity="0.2" filter="url(#redDust)"/>

  <g filter="url(#softShadow)">
    <circle cx="93" cy="88" r="61" fill="url(#reelGlow)"/>
    <circle cx="93" cy="88" r="61" fill="none" stroke="#260204" stroke-width="5"/>
    <circle cx="93" cy="88" r="27" fill="#090909" opacity="0.92"/>

    <ellipse cx="61" cy="58" rx="12" ry="17" transform="rotate(18 61 58)" fill="#050505"/>
    <ellipse cx="96" cy="48" rx="12" ry="17" transform="rotate(-24 96 48)" fill="#050505"/>
    <ellipse cx="130" cy="66" rx="12" ry="17" transform="rotate(-35 130 66)" fill="#050505"/>
    <ellipse cx="129" cy="108" rx="12" ry="17" transform="rotate(22 129 108)" fill="#050505"/>
    <ellipse cx="71" cy="116" rx="12" ry="17" transform="rotate(-35 71 116)" fill="#050505"/>

    <path d="M76 67v50l49-25z" fill="#f7f7f7" stroke="#060606" stroke-width="5" stroke-linejoin="round"/>
    <path d="M48 117c35 17 76 22 114 11l-13 26c-40 11-82 4-116-15z" fill="url(#filmStrip)" stroke="#090909" stroke-width="4" stroke-linejoin="round"/>
    <path d="M58 126l8 4M82 133l8 3M106 137l8 2M131 135l8-1" stroke="#111" stroke-width="7" stroke-linecap="round"/>
  </g>

  <g filter="url(#softShadow)" font-family="Arial, Helvetica, sans-serif" font-style="italic" font-weight="900">
    <text x="166" y="108" fill="#111" opacity="0.78" font-size="70" stroke="#111" stroke-width="8">Cine</text>
    <text x="164" y="106" fill="url(#wordWhite)" font-size="70" stroke="#2a2a2a" stroke-width="1.5">Cine</text>
    <text x="319" y="108" fill="#111" opacity="0.78" font-size="70" stroke="#111" stroke-width="8">Stream</text>
    <text x="316" y="106" fill="url(#wordRed)" font-size="70">Stream</text>
  </g>
</svg>
